<svg width="1440" height="369" viewBox="0 0 1440 369" fill="none" xmlns="http://www.w3.org/2000/svg">
<rect y="184.5" width="1440" height="184.5" fill="#083043"/>
<rect width="1440" height="184.5" fill="#083043"/>
<path d="M60 184L249.75 61.8904L249.75 306.11L60 184Z" fill="#4382E9"/>
<rect x="268" y="115" width="1111" height="141" fill="#4382E9"/>
<path d="M1349.45 153.052C1349.45 154.213 1348.99 155.349 1348.14 156.314C1347.29 157.28 1346.08 158.033 1344.66 158.477C1343.24 158.922 1341.68 159.039 1340.18 158.812C1338.67 158.586 1337.29 158.027 1336.2 157.206C1335.12 156.385 1334.38 155.339 1334.08 154.2C1333.78 153.061 1333.93 151.88 1334.52 150.807C1335.1 149.734 1336.1 148.817 1337.38 148.172C1338.65 147.526 1340.15 147.182 1341.69 147.181C1343.74 147.183 1345.72 147.802 1347.17 148.903C1348.63 150.003 1349.44 151.495 1349.45 153.052ZM1349.45 217.948C1349.45 219.109 1348.99 220.245 1348.14 221.21C1347.29 222.176 1346.08 222.929 1344.66 223.373C1343.24 223.818 1341.68 223.935 1340.18 223.708C1338.67 223.482 1337.29 222.923 1336.2 222.102C1335.12 221.281 1334.38 220.235 1334.08 219.096C1333.78 217.957 1333.93 216.776 1334.52 215.703C1335.1 214.63 1336.1 213.713 1337.38 213.068C1338.65 212.422 1340.15 212.078 1341.69 212.077C1343.74 212.079 1345.72 212.698 1347.17 213.798C1348.63 214.899 1349.45 216.391 1349.45 217.948ZM1302.71 150.947L1275.85 139.213C1275.48 139.052 1275.08 138.948 1274.65 138.905C1274.23 138.863 1273.81 138.884 1273.4 138.967C1272.99 139.049 1272.6 139.192 1272.27 139.387C1271.93 139.582 1271.65 139.826 1271.44 140.104C1271.22 140.381 1271.09 140.688 1271.03 141.006C1270.97 141.324 1271 141.647 1271.11 141.957C1271.22 142.267 1271.41 142.558 1271.67 142.812C1271.93 143.067 1272.25 143.28 1272.62 143.441L1299.82 155.322C1294.33 164.408 1291.28 174.613 1291.28 185.501C1291.28 196.389 1294.34 206.593 1299.82 215.679L1272.62 227.559C1272.25 227.72 1271.93 227.933 1271.67 228.187C1271.41 228.441 1271.22 228.732 1271.11 229.042C1271 229.352 1270.97 229.675 1271.03 229.993C1271.08 230.311 1271.22 230.618 1271.43 230.896C1271.64 231.174 1271.93 231.417 1272.26 231.612C1272.6 231.808 1272.98 231.951 1273.39 232.034C1273.8 232.117 1274.23 232.138 1274.65 232.095C1275.07 232.053 1275.48 231.949 1275.84 231.788L1302.71 220.053C1317.19 240.203 1344.15 253.984 1376 256V115C1344.15 117.018 1317.19 130.799 1302.71 150.947Z" fill="#3DDC84"/>
<path d="M548 154.28C555.488 154.28 561.6 154.984 566.336 156.392C571.136 157.8 574.848 160.456 577.472 164.36C580.16 168.264 581.504 173.864 581.504 181.16C581.504 188.968 580.096 194.92 577.28 199.016C574.464 203.048 570.688 205.736 565.952 207.08C561.216 208.36 555.232 209 548 209H528.8V154.28H548ZM560.864 195.944C561.632 195.176 562.176 193.192 562.496 189.992C562.816 186.792 562.976 183.848 562.976 181.16C562.976 177.768 562.72 175.08 562.208 173.096C561.76 171.048 560.928 169.416 559.712 168.2C557.792 166.088 554.496 165.032 549.824 165.032C548.992 165.032 547.744 165.096 546.08 165.224V197.096C547.168 197.224 548.864 197.288 551.168 197.288C553.536 197.288 555.616 197.192 557.408 197C559.264 196.744 560.416 196.392 560.864 195.944ZM615.095 197.48C616.695 197.48 619.671 197.32 624.023 197C624.599 197 625.655 196.936 627.191 196.808L628.631 206.696C623.703 209 617.303 210.152 609.431 210.152C602.071 210.152 596.407 208.296 592.439 204.584C588.535 200.872 586.583 195.272 586.583 187.784C586.583 183.944 587.063 180.232 588.023 176.648C589.047 173.064 590.199 170.568 591.479 169.16C592.823 167.752 595.319 166.536 598.967 165.512C602.615 164.488 606.231 163.976 609.815 163.976C615.575 163.976 619.895 165 622.775 167.048C625.655 169.096 627.543 171.944 628.439 175.592C629.335 179.176 629.783 184.008 629.783 190.088C625.431 190.344 621.175 190.472 617.015 190.472H603.383C603.383 192.52 603.799 194.056 604.631 195.08C605.527 196.104 606.775 196.776 608.375 197.096C609.975 197.352 612.215 197.48 615.095 197.48ZM604.343 175.4C603.959 175.592 603.671 176.424 603.479 177.896C603.287 179.368 603.159 181.032 603.095 182.888H608.087C611.095 182.888 613.271 182.856 614.615 182.792C614.615 179.72 614.167 177.544 613.271 176.264C612.439 174.984 610.967 174.344 608.855 174.344C607.127 174.344 605.623 174.696 604.343 175.4ZM663.977 164.84H681.161L667.721 209H644.969L631.529 164.84H648.713L655.913 198.728H656.873L663.977 164.84ZM711.751 197.48C713.351 197.48 716.327 197.32 720.679 197C721.255 197 722.311 196.936 723.847 196.808L725.287 206.696C720.359 209 713.959 210.152 706.087 210.152C698.727 210.152 693.063 208.296 689.095 204.584C685.191 200.872 683.239 195.272 683.239 187.784C683.239 183.944 683.719 180.232 684.679 176.648C685.703 173.064 686.855 170.568 688.135 169.16C689.479 167.752 691.975 166.536 695.623 165.512C699.271 164.488 702.887 163.976 706.471 163.976C712.231 163.976 716.551 165 719.431 167.048C722.311 169.096 724.199 171.944 725.095 175.592C725.991 179.176 726.439 184.008 726.439 190.088C722.087 190.344 717.831 190.472 713.671 190.472H700.039C700.039 192.52 700.455 194.056 701.287 195.08C702.183 196.104 703.431 196.776 705.031 197.096C706.631 197.352 708.871 197.48 711.751 197.48ZM700.999 175.4C700.615 175.592 700.327 176.424 700.135 177.896C699.943 179.368 699.815 181.032 699.751 182.888H704.743C707.751 182.888 709.927 182.856 711.271 182.792C711.271 179.72 710.823 177.544 709.927 176.264C709.095 174.984 707.623 174.344 705.511 174.344C703.783 174.344 702.279 174.696 700.999 175.4ZM732.505 151.4L748.921 150.728V209H732.505V151.4ZM778.373 210.248C770.693 210.248 764.933 208.456 761.093 204.872C757.317 201.224 755.429 195.496 755.429 187.688C755.429 183.4 755.813 179.656 756.581 176.456C757.413 173.192 758.405 170.92 759.557 169.64C761.029 167.976 763.717 166.6 767.621 165.512C771.589 164.424 775.301 163.88 778.757 163.88C787.013 163.88 792.901 165.64 796.421 169.16C799.941 172.68 801.701 178.312 801.701 186.056C801.701 194.376 799.813 200.488 796.037 204.392C792.261 208.296 786.373 210.248 778.373 210.248ZM778.661 199.016C781.157 199.016 782.789 198.152 783.557 196.424C784.325 194.632 784.709 191.496 784.709 187.016C784.709 183.88 784.549 181.48 784.229 179.816C783.909 178.088 783.301 176.84 782.405 176.072C781.573 175.24 780.261 174.824 778.469 174.824C775.909 174.824 774.437 175.048 774.053 175.496C773.541 175.944 773.125 177.352 772.805 179.72C772.485 182.088 772.325 184.552 772.325 187.112C772.325 191.464 772.741 194.536 773.573 196.328C774.469 198.12 776.165 199.016 778.661 199.016ZM838.303 163.88C842.911 163.88 846.559 165.416 849.247 168.488C851.999 171.496 853.375 176.776 853.375 184.328C853.375 189.96 852.831 194.568 851.743 198.152C850.655 201.672 849.407 204.008 847.999 205.16C846.591 206.312 844.127 207.24 840.607 207.944C837.151 208.648 833.567 209 829.855 209C828.767 209 826.943 208.936 824.383 208.808V222.44L807.967 223.112V164.84H821.407L823.039 171.656C824.703 169.288 826.815 167.4 829.375 165.992C831.999 164.584 834.975 163.88 838.303 163.88ZM834.463 197.288C835.167 196.776 835.679 195.336 835.999 192.968C836.319 190.536 836.479 188.232 836.479 186.056C836.479 182.472 836.031 179.816 835.135 178.088C834.239 176.36 832.447 175.496 829.759 175.496C827.839 175.496 826.047 175.688 824.383 176.072V197.384L827.071 197.672C827.903 197.736 829.087 197.768 830.623 197.768C832.799 197.768 834.079 197.608 834.463 197.288ZM886.595 197.48C888.195 197.48 891.171 197.32 895.523 197C896.099 197 897.155 196.936 898.691 196.808L900.131 206.696C895.203 209 888.803 210.152 880.931 210.152C873.571 210.152 867.907 208.296 863.939 204.584C860.035 200.872 858.083 195.272 858.083 187.784C858.083 183.944 858.563 180.232 859.523 176.648C860.547 173.064 861.699 170.568 862.979 169.16C864.323 167.752 866.819 166.536 870.467 165.512C874.115 164.488 877.731 163.976 881.315 163.976C887.075 163.976 891.395 165 894.275 167.048C897.155 169.096 899.043 171.944 899.939 175.592C900.835 179.176 901.283 184.008 901.283 190.088C896.931 190.344 892.675 190.472 888.515 190.472H874.883C874.883 192.52 875.299 194.056 876.131 195.08C877.027 196.104 878.275 196.776 879.875 197.096C881.475 197.352 883.715 197.48 886.595 197.48ZM875.843 175.4C875.459 175.592 875.171 176.424 874.979 177.896C874.787 179.368 874.659 181.032 874.595 182.888H879.587C882.595 182.888 884.771 182.856 886.115 182.792C886.115 179.72 885.667 177.544 884.771 176.264C883.939 174.984 882.467 174.344 880.355 174.344C878.627 174.344 877.123 174.696 875.843 175.4ZM934.421 163.88C935.253 163.88 936.117 163.976 937.013 164.168C937.973 164.36 938.677 164.584 939.125 164.84C939.125 166.248 938.965 168.584 938.645 171.848C938.325 175.048 938.037 177.32 937.781 178.664C937.141 178.6 935.957 178.568 934.229 178.568C930.197 178.568 926.613 178.792 923.477 179.24V209H907.061V164.84H920.789L922.709 171.944H922.805C924.661 169.512 926.645 167.56 928.757 166.088C930.869 164.616 932.757 163.88 934.421 163.88ZM958.834 154.28H976.114V209H958.834V154.28ZM1012.52 210.248C1002.98 210.248 995.815 208.008 991.015 203.528C986.279 198.984 983.911 191.72 983.911 181.736C983.911 171.944 986.535 164.808 991.783 160.328C997.031 155.848 1003.98 153.608 1012.62 153.608C1030.79 153.608 1039.88 162.664 1039.88 180.776C1039.88 189.928 1037.64 197.128 1033.16 202.376C1028.74 207.624 1021.86 210.248 1012.52 210.248ZM1012.14 198.92C1013.93 198.92 1015.43 198.632 1016.65 198.056C1017.86 197.416 1018.82 196.328 1019.53 194.792C1020.87 192.168 1021.54 187.88 1021.54 181.928C1021.54 176.104 1020.87 171.88 1019.53 169.256C1018.18 166.568 1015.72 165.16 1012.14 165.032C1010.79 165.032 1009.38 165.192 1007.91 165.512C1006.5 165.768 1005.61 166.152 1005.22 166.664C1004.46 167.56 1003.85 169.48 1003.4 172.424C1003.02 175.304 1002.82 178.472 1002.82 181.928C1002.82 187.304 1003.34 191.24 1004.36 193.736C1005.06 195.592 1006.06 196.936 1007.34 197.768C1008.62 198.536 1010.22 198.92 1012.14 198.92Z" fill="#3CDC84"/>
</svg>
