<svg width="1040" height="188" viewBox="0 0 1040 188" fill="none" xmlns="http://www.w3.org/2000/svg">
<rect y="94" width="1040" height="94" fill="#083043"/>
<rect width="1040" height="94" fill="#083043"/>
<rect x="100" y="44" width="840" height="100" fill="#4382E9"/>
<path d="M23 94L99.5 44.6366L99.5 143.363L23 94Z" fill="#4382E9"/>
<path d="M924.097 70.9873C924.097 71.8109 923.853 72.6161 923.396 73.301C922.938 73.9859 922.288 74.5198 921.527 74.8351C920.766 75.1504 919.929 75.2331 919.121 75.0725C918.313 74.912 917.571 74.5155 916.989 73.9332C916.406 73.3509 916.009 72.609 915.849 71.8012C915.688 70.9934 915.77 70.1561 916.085 69.3951C916.4 68.6341 916.934 67.9836 917.619 67.5259C918.303 67.0682 919.108 66.8238 919.932 66.8236C921.036 66.8249 922.094 67.2639 922.875 68.0444C923.656 68.8249 924.095 69.8832 924.097 70.9873ZM924.097 117.013C924.097 117.836 923.853 118.642 923.396 119.326C922.938 120.011 922.288 120.545 921.527 120.861C920.766 121.176 919.929 121.259 919.121 121.098C918.313 120.938 917.571 120.541 916.989 119.959C916.406 119.376 916.009 118.635 915.849 117.827C915.688 117.019 915.77 116.182 916.085 115.421C916.4 114.66 916.934 114.009 917.619 113.551C918.303 113.094 919.108 112.849 919.932 112.849C921.036 112.85 922.095 113.289 922.876 114.07C923.656 114.85 924.096 115.909 924.097 117.013ZM899.014 69.494L884.601 61.1723C884.404 61.0582 884.187 60.9841 883.961 60.9541C883.736 60.9241 883.506 60.9389 883.287 60.9976C883.067 61.0562 882.861 61.1577 882.68 61.296C882.499 61.4344 882.348 61.607 882.234 61.804C882.12 62.001 882.046 62.2185 882.016 62.444C881.987 62.6696 882.002 62.8988 882.06 63.1186C882.119 63.3384 882.221 63.5444 882.359 63.7249C882.498 63.9054 882.671 64.0569 882.868 64.1706L897.463 72.5974C894.522 79.0413 892.884 86.2786 892.884 94.0008C892.884 101.723 894.524 108.959 897.463 115.403L882.868 123.829C882.67 123.943 882.498 124.094 882.359 124.275C882.22 124.455 882.118 124.661 882.059 124.881C882 125.1 881.985 125.33 882.015 125.555C882.044 125.781 882.118 125.998 882.232 126.196C882.346 126.393 882.497 126.565 882.678 126.704C882.858 126.842 883.064 126.944 883.284 127.003C883.504 127.061 883.733 127.076 883.959 127.046C884.184 127.017 884.402 126.943 884.599 126.829L899.014 118.506C906.787 132.796 921.253 142.57 938.346 144V44C921.253 45.4313 906.787 55.2047 899.014 69.494Z" fill="#3DDC84"/>
<path d="M420 76.2C423.12 76.2 425.667 76.4933 427.64 77.08C429.64 77.6667 431.187 78.7733 432.28 80.4C433.4 82.0267 433.96 84.36 433.96 87.4C433.96 90.6533 433.373 93.1333 432.2 94.84C431.027 96.52 429.453 97.64 427.48 98.2C425.507 98.7333 423.013 99 420 99H412V76.2H420ZM425.36 93.56C425.68 93.24 425.907 92.4133 426.04 91.08C426.173 89.7467 426.24 88.52 426.24 87.4C426.24 85.9867 426.133 84.8667 425.92 84.04C425.733 83.1867 425.387 82.5067 424.88 82C424.08 81.12 422.707 80.68 420.76 80.68C420.413 80.68 419.893 80.7067 419.2 80.76V94.04C419.653 94.0933 420.36 94.12 421.32 94.12C422.307 94.12 423.173 94.08 423.92 94C424.693 93.8933 425.173 93.7467 425.36 93.56ZM447.956 94.2C448.623 94.2 449.863 94.1333 451.676 94C451.916 94 452.356 93.9733 452.996 93.92L453.596 98.04C451.543 99 448.876 99.48 445.596 99.48C442.53 99.48 440.17 98.7067 438.516 97.16C436.89 95.6133 436.076 93.28 436.076 90.16C436.076 88.56 436.276 87.0133 436.676 85.52C437.103 84.0267 437.583 82.9867 438.116 82.4C438.676 81.8133 439.716 81.3067 441.236 80.88C442.756 80.4533 444.263 80.24 445.756 80.24C448.156 80.24 449.956 80.6667 451.156 81.52C452.356 82.3733 453.143 83.56 453.516 85.08C453.89 86.5733 454.076 88.5867 454.076 91.12C452.263 91.2267 450.49 91.28 448.756 91.28H443.076C443.076 92.1333 443.25 92.7733 443.596 93.2C443.97 93.6267 444.49 93.9067 445.156 94.04C445.823 94.1467 446.756 94.2 447.956 94.2ZM443.476 85C443.316 85.08 443.196 85.4267 443.116 86.04C443.036 86.6533 442.983 87.3467 442.956 88.12H445.036C446.29 88.12 447.196 88.1067 447.756 88.08C447.756 86.8 447.57 85.8933 447.196 85.36C446.85 84.8267 446.236 84.56 445.356 84.56C444.636 84.56 444.01 84.7067 443.476 85ZM468.324 80.6H475.484L469.884 99H460.404L454.804 80.6H461.964L464.964 94.72H465.364L468.324 80.6ZM488.23 94.2C488.896 94.2 490.136 94.1333 491.95 94C492.19 94 492.63 93.9733 493.27 93.92L493.87 98.04C491.816 99 489.15 99.48 485.87 99.48C482.803 99.48 480.443 98.7067 478.79 97.16C477.163 95.6133 476.35 93.28 476.35 90.16C476.35 88.56 476.55 87.0133 476.95 85.52C477.376 84.0267 477.856 82.9867 478.39 82.4C478.95 81.8133 479.99 81.3067 481.51 80.88C483.03 80.4533 484.536 80.24 486.03 80.24C488.43 80.24 490.23 80.6667 491.43 81.52C492.63 82.3733 493.416 83.56 493.79 85.08C494.163 86.5733 494.35 88.5867 494.35 91.12C492.536 91.2267 490.763 91.28 489.03 91.28H483.35C483.35 92.1333 483.523 92.7733 483.87 93.2C484.243 93.6267 484.763 93.9067 485.43 94.04C486.096 94.1467 487.03 94.2 488.23 94.2ZM483.75 85C483.59 85.08 483.47 85.4267 483.39 86.04C483.31 86.6533 483.256 87.3467 483.23 88.12H485.31C486.563 88.12 487.47 88.1067 488.03 88.08C488.03 86.8 487.843 85.8933 487.47 85.36C487.123 84.8267 486.51 84.56 485.63 84.56C484.91 84.56 484.283 84.7067 483.75 85ZM496.877 75L503.717 74.72V99H496.877V75ZM515.989 99.52C512.789 99.52 510.389 98.7733 508.789 97.28C507.215 95.76 506.429 93.3733 506.429 90.12C506.429 88.3333 506.589 86.7733 506.909 85.44C507.255 84.08 507.669 83.1333 508.149 82.6C508.762 81.9067 509.882 81.3333 511.509 80.88C513.162 80.4267 514.709 80.2 516.149 80.2C519.589 80.2 522.042 80.9333 523.509 82.4C524.975 83.8667 525.709 86.2133 525.709 89.44C525.709 92.9067 524.922 95.4533 523.349 97.08C521.775 98.7067 519.322 99.52 515.989 99.52ZM516.109 94.84C517.149 94.84 517.829 94.48 518.149 93.76C518.469 93.0133 518.629 91.7067 518.629 89.84C518.629 88.5333 518.562 87.5333 518.429 86.84C518.295 86.12 518.042 85.6 517.669 85.28C517.322 84.9333 516.775 84.76 516.029 84.76C514.962 84.76 514.349 84.8533 514.189 85.04C513.975 85.2267 513.802 85.8133 513.669 86.8C513.535 87.7867 513.469 88.8133 513.469 89.88C513.469 91.6933 513.642 92.9733 513.989 93.72C514.362 94.4667 515.069 94.84 516.109 94.84ZM540.96 80.2C542.88 80.2 544.4 80.84 545.52 82.12C546.666 83.3733 547.24 85.5733 547.24 88.72C547.24 91.0667 547.013 92.9867 546.56 94.48C546.106 95.9467 545.586 96.92 545 97.4C544.413 97.88 543.386 98.2667 541.92 98.56C540.48 98.8533 538.986 99 537.44 99C536.986 99 536.226 98.9733 535.16 98.92V104.6L528.32 104.88V80.6H533.92L534.6 83.44C535.293 82.4533 536.173 81.6667 537.24 81.08C538.333 80.4933 539.573 80.2 540.96 80.2ZM539.36 94.12C539.653 93.9067 539.866 93.3067 540 92.32C540.133 91.3067 540.2 90.3467 540.2 89.44C540.2 87.9467 540.013 86.84 539.64 86.12C539.266 85.4 538.52 85.04 537.4 85.04C536.6 85.04 535.853 85.12 535.16 85.28V94.16L536.28 94.28C536.626 94.3067 537.12 94.32 537.76 94.32C538.666 94.32 539.2 94.2533 539.36 94.12ZM561.081 94.2C561.748 94.2 562.988 94.1333 564.801 94C565.041 94 565.481 93.9733 566.121 93.92L566.721 98.04C564.668 99 562.001 99.48 558.721 99.48C555.655 99.48 553.295 98.7067 551.641 97.16C550.015 95.6133 549.201 93.28 549.201 90.16C549.201 88.56 549.401 87.0133 549.801 85.52C550.228 84.0267 550.708 82.9867 551.241 82.4C551.801 81.8133 552.841 81.3067 554.361 80.88C555.881 80.4533 557.388 80.24 558.881 80.24C561.281 80.24 563.081 80.6667 564.281 81.52C565.481 82.3733 566.268 83.56 566.641 85.08C567.015 86.5733 567.201 88.5867 567.201 91.12C565.388 91.2267 563.615 91.28 561.881 91.28H556.201C556.201 92.1333 556.375 92.7733 556.721 93.2C557.095 93.6267 557.615 93.9067 558.281 94.04C558.948 94.1467 559.881 94.2 561.081 94.2ZM556.601 85C556.441 85.08 556.321 85.4267 556.241 86.04C556.161 86.6533 556.108 87.3467 556.081 88.12H558.161C559.415 88.12 560.321 88.1067 560.881 88.08C560.881 86.8 560.695 85.8933 560.321 85.36C559.975 84.8267 559.361 84.56 558.481 84.56C557.761 84.56 557.135 84.7067 556.601 85ZM581.009 80.2C581.355 80.2 581.715 80.24 582.089 80.32C582.489 80.4 582.782 80.4933 582.969 80.6C582.969 81.1867 582.902 82.16 582.769 83.52C582.635 84.8533 582.515 85.8 582.409 86.36C582.142 86.3333 581.649 86.32 580.929 86.32C579.249 86.32 577.755 86.4133 576.449 86.6V99H569.609V80.6H575.329L576.129 83.56H576.169C576.942 82.5467 577.769 81.7333 578.649 81.12C579.529 80.5067 580.315 80.2 581.009 80.2ZM591.181 76.2H598.381V99H591.181V76.2ZM613.55 99.52C609.576 99.52 606.59 98.5867 604.59 96.72C602.616 94.8267 601.63 91.8 601.63 87.64C601.63 83.56 602.723 80.5867 604.91 78.72C607.096 76.8533 609.99 75.92 613.59 75.92C621.163 75.92 624.95 79.6933 624.95 87.24C624.95 91.0533 624.016 94.0533 622.15 96.24C620.31 98.4267 617.443 99.52 613.55 99.52ZM613.39 94.8C614.136 94.8 614.763 94.68 615.27 94.44C615.776 94.1733 616.176 93.72 616.47 93.08C617.03 91.9867 617.31 90.2 617.31 87.72C617.31 85.2933 617.03 83.5333 616.47 82.44C615.91 81.32 614.883 80.7333 613.39 80.68C612.83 80.68 612.243 80.7467 611.63 80.88C611.043 80.9867 610.67 81.1467 610.51 81.36C610.19 81.7333 609.936 82.5333 609.75 83.76C609.59 84.96 609.51 86.28 609.51 87.72C609.51 89.96 609.723 91.6 610.15 92.64C610.443 93.4133 610.856 93.9733 611.39 94.32C611.923 94.64 612.59 94.8 613.39 94.8Z" fill="#3CDC84"/>
</svg>
