<svg width="1040" height="200" viewBox="0 0 1040 200" fill="none" xmlns="http://www.w3.org/2000/svg">
<rect width="1040" height="100" fill="#083043"/>
<rect y="100" width="1040" height="100" fill="#083043"/>
<rect x="100" y="54" width="840" height="100" fill="#4382E9"/>
<path d="M23 104L99.5 54.6366L99.5 153.363L23 104Z" fill="#4382E9"/>
<path d="M924.097 80.9873C924.097 81.8109 923.853 82.6161 923.396 83.301C922.938 83.9859 922.288 84.5198 921.527 84.8351C920.766 85.1504 919.929 85.2331 919.121 85.0725C918.313 84.912 917.571 84.5155 916.989 83.9332C916.406 83.3509 916.009 82.609 915.849 81.8012C915.688 80.9934 915.77 80.1561 916.085 79.3951C916.4 78.6341 916.934 77.9836 917.619 77.5259C918.303 77.0682 919.108 76.8238 919.932 76.8236C921.036 76.8249 922.094 77.2639 922.875 78.0444C923.656 78.8249 924.095 79.8832 924.097 80.9873ZM924.097 127.013C924.097 127.836 923.853 128.642 923.396 129.326C922.938 130.011 922.288 130.545 921.527 130.861C920.766 131.176 919.929 131.259 919.121 131.098C918.313 130.938 917.571 130.541 916.989 129.959C916.406 129.376 916.009 128.635 915.849 127.827C915.688 127.019 915.77 126.182 916.085 125.421C916.4 124.66 916.934 124.009 917.619 123.551C918.303 123.094 919.108 122.849 919.932 122.849C921.036 122.85 922.095 123.289 922.876 124.07C923.656 124.85 924.096 125.909 924.097 127.013ZM899.014 79.494L884.601 71.1723C884.404 71.0582 884.187 70.9841 883.961 70.9541C883.736 70.9241 883.506 70.9389 883.287 70.9976C883.067 71.0562 882.861 71.1577 882.68 71.296C882.499 71.4344 882.348 71.607 882.234 71.804C882.12 72.001 882.046 72.2185 882.016 72.444C881.987 72.6696 882.002 72.8988 882.06 73.1186C882.119 73.3384 882.221 73.5444 882.359 73.7249C882.498 73.9054 882.671 74.0569 882.868 74.1706L897.463 82.5974C894.522 89.0413 892.884 96.2786 892.884 104.001C892.884 111.723 894.524 118.959 897.463 125.403L882.868 133.829C882.67 133.943 882.498 134.094 882.359 134.275C882.22 134.455 882.118 134.661 882.059 134.881C882 135.1 881.985 135.33 882.015 135.555C882.044 135.781 882.118 135.998 882.232 136.196C882.346 136.393 882.497 136.565 882.678 136.704C882.858 136.842 883.064 136.944 883.284 137.003C883.504 137.061 883.733 137.076 883.959 137.046C884.184 137.017 884.402 136.943 884.599 136.829L899.014 128.506C906.787 142.796 921.253 152.57 938.346 154V54C921.253 55.4313 906.787 65.2047 899.014 79.494Z" fill="#3DDC84"/>
<path d="M420 86.2C423.12 86.2 425.667 86.4933 427.64 87.08C429.64 87.6667 431.187 88.7733 432.28 90.4C433.4 92.0267 433.96 94.36 433.96 97.4C433.96 100.653 433.373 103.133 432.2 104.84C431.027 106.52 429.453 107.64 427.48 108.2C425.507 108.733 423.013 109 420 109H412V86.2H420ZM425.36 103.56C425.68 103.24 425.907 102.413 426.04 101.08C426.173 99.7467 426.24 98.52 426.24 97.4C426.24 95.9867 426.133 94.8667 425.92 94.04C425.733 93.1867 425.387 92.5067 424.88 92C424.08 91.12 422.707 90.68 420.76 90.68C420.413 90.68 419.893 90.7067 419.2 90.76V104.04C419.653 104.093 420.36 104.12 421.32 104.12C422.307 104.12 423.173 104.08 423.92 104C424.693 103.893 425.173 103.747 425.36 103.56ZM447.956 104.2C448.623 104.2 449.863 104.133 451.676 104C451.916 104 452.356 103.973 452.996 103.92L453.596 108.04C451.543 109 448.876 109.48 445.596 109.48C442.53 109.48 440.17 108.707 438.516 107.16C436.89 105.613 436.076 103.28 436.076 100.16C436.076 98.56 436.276 97.0133 436.676 95.52C437.103 94.0267 437.583 92.9867 438.116 92.4C438.676 91.8133 439.716 91.3067 441.236 90.88C442.756 90.4533 444.263 90.24 445.756 90.24C448.156 90.24 449.956 90.6667 451.156 91.52C452.356 92.3733 453.143 93.56 453.516 95.08C453.89 96.5733 454.076 98.5867 454.076 101.12C452.263 101.227 450.49 101.28 448.756 101.28H443.076C443.076 102.133 443.25 102.773 443.596 103.2C443.97 103.627 444.49 103.907 445.156 104.04C445.823 104.147 446.756 104.2 447.956 104.2ZM443.476 95C443.316 95.08 443.196 95.4267 443.116 96.04C443.036 96.6533 442.983 97.3467 442.956 98.12H445.036C446.29 98.12 447.196 98.1067 447.756 98.08C447.756 96.8 447.57 95.8933 447.196 95.36C446.85 94.8267 446.236 94.56 445.356 94.56C444.636 94.56 444.01 94.7067 443.476 95ZM468.324 90.6H475.484L469.884 109H460.404L454.804 90.6H461.964L464.964 104.72H465.364L468.324 90.6ZM488.23 104.2C488.896 104.2 490.136 104.133 491.95 104C492.19 104 492.63 103.973 493.27 103.92L493.87 108.04C491.816 109 489.15 109.48 485.87 109.48C482.803 109.48 480.443 108.707 478.79 107.16C477.163 105.613 476.35 103.28 476.35 100.16C476.35 98.56 476.55 97.0133 476.95 95.52C477.376 94.0267 477.856 92.9867 478.39 92.4C478.95 91.8133 479.99 91.3067 481.51 90.88C483.03 90.4533 484.536 90.24 486.03 90.24C488.43 90.24 490.23 90.6667 491.43 91.52C492.63 92.3733 493.416 93.56 493.79 95.08C494.163 96.5733 494.35 98.5867 494.35 101.12C492.536 101.227 490.763 101.28 489.03 101.28H483.35C483.35 102.133 483.523 102.773 483.87 103.2C484.243 103.627 484.763 103.907 485.43 104.04C486.096 104.147 487.03 104.2 488.23 104.2ZM483.75 95C483.59 95.08 483.47 95.4267 483.39 96.04C483.31 96.6533 483.256 97.3467 483.23 98.12H485.31C486.563 98.12 487.47 98.1067 488.03 98.08C488.03 96.8 487.843 95.8933 487.47 95.36C487.123 94.8267 486.51 94.56 485.63 94.56C484.91 94.56 484.283 94.7067 483.75 95ZM496.877 85L503.717 84.72V109H496.877V85ZM515.989 109.52C512.789 109.52 510.389 108.773 508.789 107.28C507.215 105.76 506.429 103.373 506.429 100.12C506.429 98.3333 506.589 96.7733 506.909 95.44C507.255 94.08 507.669 93.1333 508.149 92.6C508.762 91.9067 509.882 91.3333 511.509 90.88C513.162 90.4267 514.709 90.2 516.149 90.2C519.589 90.2 522.042 90.9333 523.509 92.4C524.975 93.8667 525.709 96.2133 525.709 99.44C525.709 102.907 524.922 105.453 523.349 107.08C521.775 108.707 519.322 109.52 515.989 109.52ZM516.109 104.84C517.149 104.84 517.829 104.48 518.149 103.76C518.469 103.013 518.629 101.707 518.629 99.84C518.629 98.5333 518.562 97.5333 518.429 96.84C518.295 96.12 518.042 95.6 517.669 95.28C517.322 94.9333 516.775 94.76 516.029 94.76C514.962 94.76 514.349 94.8533 514.189 95.04C513.975 95.2267 513.802 95.8133 513.669 96.8C513.535 97.7867 513.469 98.8133 513.469 99.88C513.469 101.693 513.642 102.973 513.989 103.72C514.362 104.467 515.069 104.84 516.109 104.84ZM540.96 90.2C542.88 90.2 544.4 90.84 545.52 92.12C546.666 93.3733 547.24 95.5733 547.24 98.72C547.24 101.067 547.013 102.987 546.56 104.48C546.106 105.947 545.586 106.92 545 107.4C544.413 107.88 543.386 108.267 541.92 108.56C540.48 108.853 538.986 109 537.44 109C536.986 109 536.226 108.973 535.16 108.92V114.6L528.32 114.88V90.6H533.92L534.6 93.44C535.293 92.4533 536.173 91.6667 537.24 91.08C538.333 90.4933 539.573 90.2 540.96 90.2ZM539.36 104.12C539.653 103.907 539.866 103.307 540 102.32C540.133 101.307 540.2 100.347 540.2 99.44C540.2 97.9467 540.013 96.84 539.64 96.12C539.266 95.4 538.52 95.04 537.4 95.04C536.6 95.04 535.853 95.12 535.16 95.28V104.16L536.28 104.28C536.626 104.307 537.12 104.32 537.76 104.32C538.666 104.32 539.2 104.253 539.36 104.12ZM561.081 104.2C561.748 104.2 562.988 104.133 564.801 104C565.041 104 565.481 103.973 566.121 103.92L566.721 108.04C564.668 109 562.001 109.48 558.721 109.48C555.655 109.48 553.295 108.707 551.641 107.16C550.015 105.613 549.201 103.28 549.201 100.16C549.201 98.56 549.401 97.0133 549.801 95.52C550.228 94.0267 550.708 92.9867 551.241 92.4C551.801 91.8133 552.841 91.3067 554.361 90.88C555.881 90.4533 557.388 90.24 558.881 90.24C561.281 90.24 563.081 90.6667 564.281 91.52C565.481 92.3733 566.268 93.56 566.641 95.08C567.015 96.5733 567.201 98.5867 567.201 101.12C565.388 101.227 563.615 101.28 561.881 101.28H556.201C556.201 102.133 556.375 102.773 556.721 103.2C557.095 103.627 557.615 103.907 558.281 104.04C558.948 104.147 559.881 104.2 561.081 104.2ZM556.601 95C556.441 95.08 556.321 95.4267 556.241 96.04C556.161 96.6533 556.108 97.3467 556.081 98.12H558.161C559.415 98.12 560.321 98.1067 560.881 98.08C560.881 96.8 560.695 95.8933 560.321 95.36C559.975 94.8267 559.361 94.56 558.481 94.56C557.761 94.56 557.135 94.7067 556.601 95ZM581.009 90.2C581.355 90.2 581.715 90.24 582.089 90.32C582.489 90.4 582.782 90.4933 582.969 90.6C582.969 91.1867 582.902 92.16 582.769 93.52C582.635 94.8533 582.515 95.8 582.409 96.36C582.142 96.3333 581.649 96.32 580.929 96.32C579.249 96.32 577.755 96.4133 576.449 96.6V109H569.609V90.6H575.329L576.129 93.56H576.169C576.942 92.5467 577.769 91.7333 578.649 91.12C579.529 90.5067 580.315 90.2 581.009 90.2ZM591.181 86.2H598.381V109H591.181V86.2ZM613.55 109.52C609.576 109.52 606.59 108.587 604.59 106.72C602.616 104.827 601.63 101.8 601.63 97.64C601.63 93.56 602.723 90.5867 604.91 88.72C607.096 86.8533 609.99 85.92 613.59 85.92C621.163 85.92 624.95 89.6933 624.95 97.24C624.95 101.053 624.016 104.053 622.15 106.24C620.31 108.427 617.443 109.52 613.55 109.52ZM613.39 104.8C614.136 104.8 614.763 104.68 615.27 104.44C615.776 104.173 616.176 103.72 616.47 103.08C617.03 101.987 617.31 100.2 617.31 97.72C617.31 95.2933 617.03 93.5333 616.47 92.44C615.91 91.32 614.883 90.7333 613.39 90.68C612.83 90.68 612.243 90.7467 611.63 90.88C611.043 90.9867 610.67 91.1467 610.51 91.36C610.19 91.7333 609.936 92.5333 609.75 93.76C609.59 94.96 609.51 96.28 609.51 97.72C609.51 99.96 609.723 101.6 610.15 102.64C610.443 103.413 610.856 103.973 611.39 104.32C611.923 104.64 612.59 104.8 613.39 104.8Z" fill="#3CDC84"/>
</svg>
